<svg width="164" height="33" viewBox="0 0 164 33" fill="none" xmlns="http://www.w3.org/2000/svg">
<path d="M5.184 25V7.192H7.488V25H5.184ZM11.8871 25V12.28H14.1911V25H11.8871ZM13.0391 9.832C12.5911 9.832 12.2151 9.688 11.9111 9.4C11.6231 9.112 11.4791 8.76 11.4791 8.344C11.4791 7.912 11.6231 7.552 11.9111 7.264C12.2151 6.976 12.5911 6.832 13.0391 6.832C13.4871 6.832 13.8551 6.976 14.1431 7.264C14.4471 7.536 14.5991 7.88 14.5991 8.296C14.5991 8.728 14.4551 9.096 14.1671 9.4C13.8791 9.688 13.5031 9.832 13.0391 9.832ZM25.3823 12.16C26.4223 12.16 27.3343 12.36 28.1183 12.76C28.9183 13.16 29.5423 13.768 29.9903 14.584C30.4383 15.4 30.6623 16.432 30.6623 17.68V25H28.3583V17.944C28.3583 16.712 28.0543 15.784 27.4463 15.16C26.8543 14.536 26.0143 14.224 24.9263 14.224C24.1103 14.224 23.3983 14.384 22.7903 14.704C22.1823 15.024 21.7103 15.496 21.3743 16.12C21.0543 16.744 20.8943 17.52 20.8943 18.448V25H18.5903V12.28H20.7983V15.712L20.4383 14.8C20.8543 13.968 21.4943 13.32 22.3583 12.856C23.2223 12.392 24.2303 12.16 25.3823 12.16ZM40.4942 29.8C39.3262 29.8 38.1902 29.632 37.0862 29.296C35.9982 28.976 35.1102 28.512 34.4222 27.904L35.5262 26.128C36.1182 26.64 36.8462 27.04 37.7102 27.328C38.5742 27.632 39.4782 27.784 40.4222 27.784C41.9262 27.784 43.0302 27.432 43.7342 26.728C44.4382 26.024 44.7902 24.952 44.7902 23.512V20.824L45.0302 18.304L44.9102 15.76V12.28H47.0942V23.272C47.0942 25.512 46.5342 27.16 45.4142 28.216C44.2942 29.272 42.6542 29.8 40.4942 29.8ZM40.2062 24.472C38.9742 24.472 37.8702 24.216 36.8942 23.704C35.9342 23.176 35.1662 22.448 34.5902 21.52C34.0302 20.592 33.7502 19.52 33.7502 18.304C33.7502 17.072 34.0302 16 34.5902 15.088C35.1662 14.16 35.9342 13.44 36.8942 12.928C37.8702 12.416 38.9742 12.16 40.2062 12.16C41.2942 12.16 42.2862 12.384 43.1822 12.832C44.0782 13.264 44.7902 13.936 45.3182 14.848C45.8622 15.76 46.1342 16.912 46.1342 18.304C46.1342 19.68 45.8622 20.824 45.3182 21.736C44.7902 22.648 44.0782 23.336 43.1822 23.8C42.2862 24.248 41.2942 24.472 40.2062 24.472ZM40.4702 22.456C41.3182 22.456 42.0702 22.28 42.7262 21.928C43.3822 21.576 43.8942 21.088 44.2622 20.464C44.6462 19.84 44.8382 19.12 44.8382 18.304C44.8382 17.488 44.6462 16.768 44.2622 16.144C43.8942 15.52 43.3822 15.04 42.7262 14.704C42.0702 14.352 41.3182 14.176 40.4702 14.176C39.6222 14.176 38.8622 14.352 38.1902 14.704C37.5342 15.04 37.0142 15.52 36.6302 16.144C36.2622 16.768 36.0782 17.488 36.0782 18.304C36.0782 19.12 36.2622 19.84 36.6302 20.464C37.0142 21.088 37.5342 21.576 38.1902 21.928C38.8622 22.28 39.6222 22.456 40.4702 22.456ZM56.8485 25.144C55.7605 25.144 54.8005 24.944 53.9685 24.544C53.1525 24.144 52.5125 23.536 52.0485 22.72C51.6005 21.888 51.3765 20.848 51.3765 19.6V12.28H53.6805V19.336C53.6805 20.584 53.9765 21.52 54.5685 22.144C55.1765 22.768 56.0245 23.08 57.1125 23.08C57.9125 23.08 58.6085 22.92 59.2005 22.6C59.7925 22.264 60.2485 21.784 60.5685 21.16C60.8885 20.52 61.0485 19.752 61.0485 18.856V12.28H63.3525V25H61.1685V21.568L61.5285 22.48C61.1125 23.328 60.4885 23.984 59.6565 24.448C58.8245 24.912 57.8885 25.144 56.8485 25.144ZM75.6347 25V22.312L75.5147 21.808V17.224C75.5147 16.248 75.2267 15.496 74.6507 14.968C74.0907 14.424 73.2427 14.152 72.1067 14.152C71.3547 14.152 70.6187 14.28 69.8987 14.536C69.1787 14.776 68.5707 15.104 68.0747 15.52L67.1147 13.792C67.7707 13.264 68.5547 12.864 69.4667 12.592C70.3947 12.304 71.3627 12.16 72.3707 12.16C74.1147 12.16 75.4587 12.584 76.4027 13.432C77.3467 14.28 77.8187 15.576 77.8187 17.32V25H75.6347ZM71.4587 25.144C70.5147 25.144 69.6827 24.984 68.9627 24.664C68.2587 24.344 67.7147 23.904 67.3307 23.344C66.9467 22.768 66.7547 22.12 66.7547 21.4C66.7547 20.712 66.9147 20.088 67.2347 19.528C67.5707 18.968 68.1067 18.52 68.8427 18.184C69.5947 17.848 70.6027 17.68 71.8667 17.68H75.8987V19.336H71.9627C70.8107 19.336 70.0347 19.528 69.6347 19.912C69.2347 20.296 69.0347 20.76 69.0347 21.304C69.0347 21.928 69.2827 22.432 69.7787 22.816C70.2747 23.184 70.9627 23.368 71.8427 23.368C72.7067 23.368 73.4587 23.176 74.0987 22.792C74.7547 22.408 75.2267 21.848 75.5147 21.112L75.9707 22.696C75.6667 23.448 75.1307 24.048 74.3627 24.496C73.5947 24.928 72.6267 25.144 71.4587 25.144Z" fill="white"/>
<g clip-path="url(#clip0_2_19)">
<path d="M93.2869 15.3374C93.7678 15.0611 94.3132 14.917 94.8679 14.9198C95.4225 14.9225 95.9665 15.0721 96.4447 15.3531C96.5436 16.5696 97.1107 17.7003 98.0264 18.5072C98.9422 19.3141 100.135 19.7343 101.355 19.6793C102.574 19.6243 103.724 19.0985 104.564 18.2125C105.403 17.3265 105.866 16.1494 105.855 14.929L105.855 8.64477C105.855 7.39476 105.359 6.19595 104.475 5.31207C103.591 4.42818 102.392 3.93162 101.142 3.93162C99.8921 3.93162 98.6933 4.42818 97.8094 5.31207C96.9255 6.19595 96.4289 7.39476 96.4289 8.64477L96.4289 8.77045C95.3888 8.59642 94.327 8.59642 93.2869 8.77045L93.2869 8.64477C93.2869 6.56142 94.1145 4.56341 95.5876 3.09027C97.0607 1.61712 99.0588 0.78952 101.142 0.78952C103.225 0.78952 105.223 1.61712 106.697 3.09027C108.17 4.56341 108.997 6.56143 108.997 8.64477L108.997 14.929C109.052 17.0123 108.276 19.0318 106.841 20.5433C105.406 22.0547 103.43 22.9343 101.346 22.9884C99.263 23.0426 97.2435 22.267 95.732 20.8321C94.2206 19.3973 93.341 17.4208 93.2869 15.3374ZM102.713 17.6626C102.232 17.9389 101.687 18.083 101.132 18.0803C100.577 18.0775 100.033 17.928 99.5553 17.6469C99.4564 16.4304 98.8893 15.2997 97.9736 14.4928C97.0578 13.6859 95.8648 13.2658 94.6455 13.3207C93.4262 13.3757 92.2758 13.9015 91.4363 14.7875C90.5969 15.6735 90.1339 16.8506 90.1448 18.0711L90.1448 24.3553C90.1448 25.6053 90.6413 26.8041 91.5252 27.688C92.4091 28.5718 93.6079 29.0684 94.8579 29.0684C96.1079 29.0684 97.3067 28.5718 98.1906 27.688C99.0745 26.8041 99.571 25.6053 99.571 24.3553L99.571 24.2296C100.611 24.4036 101.673 24.4036 102.713 24.2296L102.713 24.3553C102.713 26.4386 101.886 28.4366 100.412 29.9098C98.9393 31.3829 96.9412 32.2105 94.8579 32.2105C92.7746 32.2105 90.7765 31.3829 89.3034 29.9098C87.8303 28.4366 87.0027 26.4386 87.0027 24.3553L87.0027 18.0711C86.9758 17.0395 87.1525 16.0127 87.5224 15.0494C87.8924 14.0861 88.4485 13.2051 89.159 12.4567C90.5938 10.9453 92.5703 10.0657 94.6537 10.0116C96.737 9.95741 98.7565 10.7331 100.268 12.1679C101.779 13.6028 102.659 15.5792 102.713 17.6626Z" fill="#DA0B5E"/>
</g>
<path d="M118.184 25V7.192H120.488V25H118.184ZM124.887 25V12.28H127.191V25H124.887ZM126.039 9.832C125.591 9.832 125.215 9.688 124.911 9.4C124.623 9.112 124.479 8.76 124.479 8.344C124.479 7.912 124.623 7.552 124.911 7.264C125.215 6.976 125.591 6.832 126.039 6.832C126.487 6.832 126.855 6.976 127.143 7.264C127.447 7.536 127.599 7.88 127.599 8.296C127.599 8.728 127.455 9.096 127.167 9.4C126.879 9.688 126.503 9.832 126.039 9.832ZM138.382 12.16C139.422 12.16 140.334 12.36 141.118 12.76C141.918 13.16 142.542 13.768 142.99 14.584C143.438 15.4 143.662 16.432 143.662 17.68V25H141.358V17.944C141.358 16.712 141.054 15.784 140.446 15.16C139.854 14.536 139.014 14.224 137.926 14.224C137.11 14.224 136.398 14.384 135.79 14.704C135.182 15.024 134.71 15.496 134.374 16.12C134.054 16.744 133.894 17.52 133.894 18.448V25H131.59V12.28H133.798V15.712L133.438 14.8C133.854 13.968 134.494 13.32 135.358 12.856C136.222 12.392 137.23 12.16 138.382 12.16ZM149.798 21.928L149.846 18.976L157.166 12.28H159.95L154.334 17.8L153.086 18.856L149.798 21.928ZM147.926 25V7.192H150.23V25H147.926ZM157.646 25L152.654 18.808L154.142 16.96L160.478 25H157.646Z" fill="white"/>
<defs>
<clipPath id="clip0_2_19">
<rect width="31.421" height="28" fill="white" transform="translate(112 0.78952) rotate(90)"/>
</clipPath>
</defs>
</svg>
